<svg width="24" height="24" viewBox="0 0 24 24" fill="none" xmlns="http://www.w3.org/2000/svg">
<path fill-rule="evenodd" clip-rule="evenodd" d="M3 3H9L21 15L15 21L3 9V3Z" stroke="#333333" stroke-linecap="round" stroke-linejoin="round"/>
<path fill-rule="evenodd" clip-rule="evenodd" d="M5.79999 6.60005C5.79999 6.38788 5.88427 6.18439 6.0343 6.03436C6.18433 5.88433 6.38781 5.80005 6.59999 5.80005C6.81216 5.80005 7.01564 5.88433 7.16567 6.03436C7.3157 6.18439 7.39999 6.38788 7.39999 6.60005C7.39999 6.81222 7.3157 7.01571 7.16567 7.16573C7.01564 7.31576 6.81216 7.40005 6.59999 7.40005C6.38781 7.40005 6.18433 7.31576 6.0343 7.16573C5.88427 7.01571 5.79999 6.81222 5.79999 6.60005Z" stroke="#333333" stroke-linecap="round" stroke-linejoin="round"/>
</svg>
