<svg width="24" height="24" viewBox="0 0 24 24" fill="none" xmlns="http://www.w3.org/2000/svg">
<path d="M20.0826 9.8406C19.524 9.30043 18.7771 8.99894 18 9C17.2278 9 16.526 9.2944 15.9944 9.7736C15.8758 7.1174 13.6854 5 11 5C8.9482 5 7.186 6.2364 6.4152 8.0042C4.5218 8.0498 3 9.5956 3 11.5C3 13.433 4.567 15 6.5 15H11M20.4 16.2C20.4 16.2 19.4 18.9394 17.336 18.9394C15.7786 18.9394 14.8 17.6262 14.4 15H15.4H13.6M21 13.1V12.8992" stroke="#333333" stroke-linecap="round" stroke-linejoin="round"/>
</svg>
